<?xml version="1.0" encoding="UTF-8"?>
<svg xmlns="http://www.w3.org/2000/svg" viewBox="0 0 608 528" width="608" height="528">
<rect width="100%" height="100%" fill="white"/>
<path fill="rgb(200,200,200)" fill-rule="evenodd" d="M304,216L304,264L352,264L352,312L160,312L160,168L256,168L256,216Z"/>
<path fill="rgb(60,200,210)" fill-rule="evenodd" d="M352,264L304,264L304,216L256,216L256,168L448,168L448,312L352,312Z"/>
<path fill="rgb(220,50,50)" fill-rule="evenodd" d="M496,408L448,408L448,360L400,360L400,312L592,312L592,456L496,456Z"/>
<path fill="rgb(180,140,220)" fill-rule="evenodd" d="M208,120L160,120L160,72L112,72L112,24L304,24L304,168L208,168Z"/>
<path fill="rgb(150,70,200)" fill-rule="evenodd" d="M160,72L160,120L208,120L208,168L16,168L16,24L112,24L112,72Z"/>
<path fill="rgb(225,210,60)" fill-rule="evenodd" d="M448,360L448,408L496,408L496,456L304,456L304,312L400,312L400,360Z"/>
<path fill="rgb(60,180,70)" fill-rule="evenodd" d="M160,360L160,408L208,408L208,456L16,456L16,312L112,312L112,360Z"/>
<path fill="rgb(225,135,40)" fill-rule="evenodd" d="M112,312L64,312L64,264L16,264L16,168L160,168L160,360L112,360Z"/>
<path fill="rgb(50,90,220)" fill-rule="evenodd" d="M256,456L208,456L208,408L160,408L160,312L304,312L304,504L256,504Z"/>
<path fill="none" stroke="black" stroke-width="1.8" stroke-linejoin="miter" d="M304,216L304,264L352,264L352,312L160,312L160,168L256,168L256,216Z"/>
<path fill="none" stroke="black" stroke-width="1.8" stroke-linejoin="miter" d="M352,264L304,264L304,216L256,216L256,168L448,168L448,312L352,312Z"/>
<path fill="none" stroke="black" stroke-width="1.8" stroke-linejoin="miter" d="M496,408L448,408L448,360L400,360L400,312L592,312L592,456L496,456Z"/>
<path fill="none" stroke="black" stroke-width="1.8" stroke-linejoin="miter" d="M208,120L160,120L160,72L112,72L112,24L304,24L304,168L208,168Z"/>
<path fill="none" stroke="black" stroke-width="1.8" stroke-linejoin="miter" d="M160,72L160,120L208,120L208,168L16,168L16,24L112,24L112,72Z"/>
<path fill="none" stroke="black" stroke-width="1.8" stroke-linejoin="miter" d="M448,360L448,408L496,408L496,456L304,456L304,312L400,312L400,360Z"/>
<path fill="none" stroke="black" stroke-width="1.8" stroke-linejoin="miter" d="M160,360L160,408L208,408L208,456L16,456L16,312L112,312L112,360Z"/>
<path fill="none" stroke="black" stroke-width="1.8" stroke-linejoin="miter" d="M112,312L64,312L64,264L16,264L16,168L160,168L160,360L112,360Z"/>
<path fill="none" stroke="black" stroke-width="1.8" stroke-linejoin="miter" d="M256,456L208,456L208,408L160,408L160,312L304,312L304,504L256,504Z"/>
</svg>
