<?xml version="1.0" encoding="UTF-8"?>
<svg xmlns="http://www.w3.org/2000/svg" viewBox="0 0 608 528" width="608" height="528">
<rect width="100%" height="100%" fill="white"/>
<path fill="rgb(200,200,200)" fill-rule="evenodd" d="M304,272L352,272L352,320L256,320L256,336L240,336L240,320L160,320L160,272L176,272L176,256L160,256L160,176L256,176L256,224L304,224Z"/>
<path fill="rgb(60,200,210)" fill-rule="evenodd" d="M304,224L256,224L256,176L352,176L352,160L368,160L368,176L448,176L448,224L432,224L432,240L448,240L448,320L352,320L352,272L304,272Z"/>
<path fill="rgb(220,50,50)" fill-rule="evenodd" d="M448,368L400,368L400,320L496,320L496,304L512,304L512,320L592,320L592,368L576,368L576,384L592,384L592,464L496,464L496,416L448,416Z"/>
<path fill="rgb(180,140,220)" fill-rule="evenodd" d="M160,80L112,80L112,32L208,32L208,16L224,16L224,32L304,32L304,80L288,80L288,96L304,96L304,176L208,176L208,128L160,128Z"/>
<path fill="rgb(150,70,200)" fill-rule="evenodd" d="M160,128L208,128L208,176L112,176L112,192L96,192L96,176L16,176L16,128L32,128L32,112L16,112L16,32L112,32L112,80L160,80Z"/>
<path fill="rgb(225,210,60)" fill-rule="evenodd" d="M448,416L496,416L496,464L400,464L400,480L384,480L384,464L304,464L304,416L320,416L320,400L304,400L304,320L400,320L400,368L448,368Z"/>
<path fill="rgb(60,180,70)" fill-rule="evenodd" d="M160,416L208,416L208,464L112,464L112,480L96,480L96,464L16,464L16,416L32,416L32,400L16,400L16,320L112,320L112,368L160,368Z"/>
<path fill="rgb(225,135,40)" fill-rule="evenodd" d="M112,320L64,320L64,272L16,272L16,176L96,176L96,192L112,192L112,176L160,176L160,256L176,256L176,272L160,272L160,368L112,368Z"/>
<path fill="rgb(50,90,220)" fill-rule="evenodd" d="M256,464L208,464L208,416L160,416L160,320L240,320L240,336L256,336L256,320L304,320L304,400L320,400L320,416L304,416L304,512L256,512Z"/>
<path fill="none" stroke="black" stroke-width="1.8" stroke-linejoin="miter" d="M304,272L352,272L352,320L256,320L256,336L240,336L240,320L160,320L160,272L176,272L176,256L160,256L160,176L256,176L256,224L304,224Z"/>
<path fill="none" stroke="black" stroke-width="1.8" stroke-linejoin="miter" d="M304,224L256,224L256,176L352,176L352,160L368,160L368,176L448,176L448,224L432,224L432,240L448,240L448,320L352,320L352,272L304,272Z"/>
<path fill="none" stroke="black" stroke-width="1.8" stroke-linejoin="miter" d="M448,368L400,368L400,320L496,320L496,304L512,304L512,320L592,320L592,368L576,368L576,384L592,384L592,464L496,464L496,416L448,416Z"/>
<path fill="none" stroke="black" stroke-width="1.8" stroke-linejoin="miter" d="M160,80L112,80L112,32L208,32L208,16L224,16L224,32L304,32L304,80L288,80L288,96L304,96L304,176L208,176L208,128L160,128Z"/>
<path fill="none" stroke="black" stroke-width="1.8" stroke-linejoin="miter" d="M160,128L208,128L208,176L112,176L112,192L96,192L96,176L16,176L16,128L32,128L32,112L16,112L16,32L112,32L112,80L160,80Z"/>
<path fill="none" stroke="black" stroke-width="1.8" stroke-linejoin="miter" d="M448,416L496,416L496,464L400,464L400,480L384,480L384,464L304,464L304,416L320,416L320,400L304,400L304,320L400,320L400,368L448,368Z"/>
<path fill="none" stroke="black" stroke-width="1.8" stroke-linejoin="miter" d="M160,416L208,416L208,464L112,464L112,480L96,480L96,464L16,464L16,416L32,416L32,400L16,400L16,320L112,320L112,368L160,368Z"/>
<path fill="none" stroke="black" stroke-width="1.8" stroke-linejoin="miter" d="M112,320L64,320L64,272L16,272L16,176L96,176L96,192L112,192L112,176L160,176L160,256L176,256L176,272L160,272L160,368L112,368Z"/>
<path fill="none" stroke="black" stroke-width="1.8" stroke-linejoin="miter" d="M256,464L208,464L208,416L160,416L160,320L240,320L240,336L256,336L256,320L304,320L304,400L320,400L320,416L304,416L304,512L256,512Z"/>
</svg>
