<?xml version="1.0" encoding="UTF-8"?>
<svg xmlns="http://www.w3.org/2000/svg" viewBox="0 0 666 570" width="666" height="570">
<rect width="100%" height="100%" fill="white"/>
<path fill="rgb(200,200,200)" fill-rule="evenodd" d="M336,294L354,294L354,288L360,288L360,294L390,294L390,312L384,312L384,318L390,318L390,348L318,348L318,354L312,354L312,348L282,348L282,366L264,366L264,348L210,348L210,354L204,354L204,348L174,348L174,330L180,330L180,324L174,324L174,294L192,294L192,276L174,276L174,222L180,222L180,216L174,216L174,186L246,186L246,180L252,180L252,186L282,186L282,204L276,204L276,210L282,210L282,240L300,240L300,234L306,234L306,240L336,240L336,258L330,258L330,264L336,264Z"/>
<path fill="rgb(60,200,210)" fill-rule="evenodd" d="M336,240L306,240L306,234L300,234L300,240L282,240L282,222L288,222L288,216L282,216L282,186L354,186L354,180L360,180L360,186L390,186L390,168L408,168L408,186L462,186L462,180L468,180L468,186L498,186L498,204L492,204L492,210L498,210L498,240L480,240L480,258L498,258L498,312L492,312L492,318L498,318L498,348L426,348L426,354L420,354L420,348L390,348L390,330L396,330L396,324L390,324L390,294L360,294L360,288L354,288L354,294L336,294L336,276L342,276L342,270L336,270Z"/>
<path fill="rgb(220,50,50)" fill-rule="evenodd" d="M498,402L480,402L480,408L474,408L474,402L444,402L444,384L450,384L450,378L444,378L444,348L516,348L516,342L522,342L522,348L552,348L552,330L570,330L570,348L624,348L624,342L630,342L630,348L660,348L660,366L654,366L654,372L660,372L660,402L642,402L642,420L660,420L660,474L654,474L654,480L660,480L660,510L588,510L588,516L582,516L582,510L552,510L552,492L558,492L558,486L552,486L552,456L534,456L534,462L528,462L528,456L498,456L498,438L504,438L504,432L498,432Z"/>
<path fill="rgb(180,140,220)" fill-rule="evenodd" d="M174,78L156,78L156,84L150,84L150,78L120,78L120,60L126,60L126,54L120,54L120,24L192,24L192,18L198,18L198,24L228,24L228,6L246,6L246,24L300,24L300,18L306,18L306,24L336,24L336,42L330,42L330,48L336,48L336,78L318,78L318,96L336,96L336,150L330,150L330,156L336,156L336,186L252,186L252,180L246,180L246,186L228,186L228,168L234,168L234,162L228,162L228,132L210,132L210,138L204,138L204,132L174,132L174,114L180,114L180,108L174,108Z"/>
<path fill="rgb(150,70,200)" fill-rule="evenodd" d="M174,132L204,132L204,138L210,138L210,132L228,132L228,150L222,150L222,156L228,156L228,186L156,186L156,192L150,192L150,186L120,186L120,204L102,204L102,186L48,186L48,192L42,192L42,186L12,186L12,168L18,168L18,162L12,162L12,132L30,132L30,114L12,114L12,60L18,60L18,54L12,54L12,24L84,24L84,18L90,18L90,24L120,24L120,42L114,42L114,48L120,48L120,78L150,78L150,84L156,84L156,78L174,78L174,96L168,96L168,102L174,102Z"/>
<path fill="rgb(225,210,60)" fill-rule="evenodd" d="M498,456L528,456L528,462L534,462L534,456L552,456L552,474L546,474L546,480L552,480L552,510L480,510L480,516L474,516L474,510L444,510L444,528L426,528L426,510L372,510L372,516L366,516L366,510L336,510L336,492L342,492L342,486L336,486L336,456L354,456L354,438L336,438L336,384L342,384L342,378L336,378L336,348L420,348L420,354L426,354L426,348L444,348L444,366L438,366L438,372L444,372L444,402L474,402L474,408L480,408L480,402L498,402L498,420L492,420L492,426L498,426Z"/>
<path fill="rgb(60,180,70)" fill-rule="evenodd" d="M174,456L192,456L192,450L198,450L198,456L228,456L228,474L222,474L222,480L228,480L228,510L156,510L156,516L150,516L150,510L120,510L120,528L102,528L102,510L48,510L48,516L42,516L42,510L12,510L12,492L18,492L18,486L12,486L12,456L30,456L30,438L12,438L12,384L18,384L18,378L12,378L12,348L84,348L84,342L90,342L90,348L120,348L120,366L114,366L114,372L120,372L120,402L138,402L138,396L144,396L144,402L174,402L174,420L168,420L168,426L174,426Z"/>
<path fill="rgb(225,135,40)" fill-rule="evenodd" d="M120,348L90,348L90,342L84,342L84,348L66,348L66,318L60,318L60,312L66,312L66,294L36,294L36,288L30,288L30,294L12,294L12,264L6,264L6,258L12,258L12,186L42,186L42,192L48,192L48,186L102,186L102,204L120,204L120,186L150,186L150,192L156,192L156,186L174,186L174,216L180,216L180,222L174,222L174,276L192,276L192,294L174,294L174,324L180,324L180,330L174,330L174,402L144,402L144,396L138,396L138,402L120,402L120,372L114,372L114,366L120,366Z"/>
<path fill="rgb(50,90,220)" fill-rule="evenodd" d="M282,510L252,510L252,504L246,504L246,510L228,510L228,480L222,480L222,474L228,474L228,456L198,456L198,450L192,450L192,456L174,456L174,426L168,426L168,420L174,420L174,348L204,348L204,354L210,354L210,348L264,348L264,366L282,366L282,348L312,348L312,354L318,354L318,348L336,348L336,378L342,378L342,384L336,384L336,438L354,438L354,456L336,456L336,486L342,486L342,492L336,492L336,564L306,564L306,558L300,558L300,564L282,564L282,534L276,534L276,528L282,528Z"/>
<rect x="312" y="240" width="6" height="6" fill="magenta" />
<rect x="300" y="234" width="6" height="6" fill="magenta" />
<rect x="366" y="294" width="6" height="6" fill="magenta" />
<rect x="354" y="288" width="6" height="6" fill="magenta" />
<rect x="258" y="186" width="6" height="6" fill="magenta" />
<rect x="246" y="180" width="6" height="6" fill="magenta" />
<rect x="408" y="342" width="6" height="6" fill="magenta" />
<rect x="420" y="348" width="6" height="6" fill="magenta" />
<rect x="516" y="450" width="6" height="6" fill="magenta" />
<rect x="528" y="456" width="6" height="6" fill="magenta" />
<rect x="462" y="396" width="6" height="6" fill="magenta" />
<rect x="474" y="402" width="6" height="6" fill="magenta" />
<rect x="192" y="126" width="6" height="6" fill="magenta" />
<rect x="204" y="132" width="6" height="6" fill="magenta" />
<rect x="138" y="72" width="6" height="6" fill="magenta" />
<rect x="150" y="78" width="6" height="6" fill="magenta" />
<rect x="114" y="42" width="6" height="6" fill="black" />
<rect x="120" y="54" width="6" height="6" fill="black" />
<rect x="168" y="96" width="6" height="6" fill="black" />
<rect x="174" y="108" width="6" height="6" fill="black" />
<rect x="222" y="150" width="6" height="6" fill="black" />
<rect x="228" y="162" width="6" height="6" fill="black" />
<rect x="276" y="204" width="6" height="6" fill="black" />
<rect x="282" y="216" width="6" height="6" fill="black" />
<rect x="330" y="258" width="6" height="6" fill="black" />
<rect x="336" y="270" width="6" height="6" fill="black" />
<rect x="384" y="312" width="6" height="6" fill="black" />
<rect x="390" y="324" width="6" height="6" fill="black" />
<rect x="438" y="366" width="6" height="6" fill="black" />
<rect x="444" y="378" width="6" height="6" fill="black" />
<rect x="492" y="420" width="6" height="6" fill="black" />
<rect x="498" y="432" width="6" height="6" fill="black" />
<rect x="546" y="474" width="6" height="6" fill="black" />
<rect x="552" y="486" width="6" height="6" fill="black" />
<path fill="none" stroke="black" stroke-width="0.4" stroke-linejoin="miter" d="M336,294L354,294L354,288L360,288L360,294L390,294L390,312L384,312L384,318L390,318L390,348L318,348L318,354L312,354L312,348L282,348L282,366L264,366L264,348L210,348L210,354L204,354L204,348L174,348L174,330L180,330L180,324L174,324L174,294L192,294L192,276L174,276L174,222L180,222L180,216L174,216L174,186L246,186L246,180L252,180L252,186L282,186L282,204L276,204L276,210L282,210L282,240L300,240L300,234L306,234L306,240L336,240L336,258L330,258L330,264L336,264Z"/>
<path fill="none" stroke="black" stroke-width="0.4" stroke-linejoin="miter" d="M336,240L306,240L306,234L300,234L300,240L282,240L282,222L288,222L288,216L282,216L282,186L354,186L354,180L360,180L360,186L390,186L390,168L408,168L408,186L462,186L462,180L468,180L468,186L498,186L498,204L492,204L492,210L498,210L498,240L480,240L480,258L498,258L498,312L492,312L492,318L498,318L498,348L426,348L426,354L420,354L420,348L390,348L390,330L396,330L396,324L390,324L390,294L360,294L360,288L354,288L354,294L336,294L336,276L342,276L342,270L336,270Z"/>
<path fill="none" stroke="black" stroke-width="0.4" stroke-linejoin="miter" d="M498,402L480,402L480,408L474,408L474,402L444,402L444,384L450,384L450,378L444,378L444,348L516,348L516,342L522,342L522,348L552,348L552,330L570,330L570,348L624,348L624,342L630,342L630,348L660,348L660,366L654,366L654,372L660,372L660,402L642,402L642,420L660,420L660,474L654,474L654,480L660,480L660,510L588,510L588,516L582,516L582,510L552,510L552,492L558,492L558,486L552,486L552,456L534,456L534,462L528,462L528,456L498,456L498,438L504,438L504,432L498,432Z"/>
<path fill="none" stroke="black" stroke-width="0.4" stroke-linejoin="miter" d="M174,78L156,78L156,84L150,84L150,78L120,78L120,60L126,60L126,54L120,54L120,24L192,24L192,18L198,18L198,24L228,24L228,6L246,6L246,24L300,24L300,18L306,18L306,24L336,24L336,42L330,42L330,48L336,48L336,78L318,78L318,96L336,96L336,150L330,150L330,156L336,156L336,186L252,186L252,180L246,180L246,186L228,186L228,168L234,168L234,162L228,162L228,132L210,132L210,138L204,138L204,132L174,132L174,114L180,114L180,108L174,108Z"/>
<path fill="none" stroke="black" stroke-width="0.4" stroke-linejoin="miter" d="M174,132L204,132L204,138L210,138L210,132L228,132L228,150L222,150L222,156L228,156L228,186L156,186L156,192L150,192L150,186L120,186L120,204L102,204L102,186L48,186L48,192L42,192L42,186L12,186L12,168L18,168L18,162L12,162L12,132L30,132L30,114L12,114L12,60L18,60L18,54L12,54L12,24L84,24L84,18L90,18L90,24L120,24L120,42L114,42L114,48L120,48L120,78L150,78L150,84L156,84L156,78L174,78L174,96L168,96L168,102L174,102Z"/>
<path fill="none" stroke="black" stroke-width="0.4" stroke-linejoin="miter" d="M498,456L528,456L528,462L534,462L534,456L552,456L552,474L546,474L546,480L552,480L552,510L480,510L480,516L474,516L474,510L444,510L444,528L426,528L426,510L372,510L372,516L366,516L366,510L336,510L336,492L342,492L342,486L336,486L336,456L354,456L354,438L336,438L336,384L342,384L342,378L336,378L336,348L420,348L420,354L426,354L426,348L444,348L444,366L438,366L438,372L444,372L444,402L474,402L474,408L480,408L480,402L498,402L498,420L492,420L492,426L498,426Z"/>
<path fill="none" stroke="black" stroke-width="0.4" stroke-linejoin="miter" d="M174,456L192,456L192,450L198,450L198,456L228,456L228,474L222,474L222,480L228,480L228,510L156,510L156,516L150,516L150,510L120,510L120,528L102,528L102,510L48,510L48,516L42,516L42,510L12,510L12,492L18,492L18,486L12,486L12,456L30,456L30,438L12,438L12,384L18,384L18,378L12,378L12,348L84,348L84,342L90,342L90,348L120,348L120,366L114,366L114,372L120,372L120,402L138,402L138,396L144,396L144,402L174,402L174,420L168,420L168,426L174,426Z"/>
<path fill="none" stroke="black" stroke-width="0.4" stroke-linejoin="miter" d="M120,348L90,348L90,342L84,342L84,348L66,348L66,318L60,318L60,312L66,312L66,294L36,294L36,288L30,288L30,294L12,294L12,264L6,264L6,258L12,258L12,186L42,186L42,192L48,192L48,186L102,186L102,204L120,204L120,186L150,186L150,192L156,192L156,186L174,186L174,216L180,216L180,222L174,222L174,276L192,276L192,294L174,294L174,324L180,324L180,330L174,330L174,402L144,402L144,396L138,396L138,402L120,402L120,372L114,372L114,366L120,366Z"/>
<path fill="none" stroke="black" stroke-width="0.4" stroke-linejoin="miter" d="M282,510L252,510L252,504L246,504L246,510L228,510L228,480L222,480L222,474L228,474L228,456L198,456L198,450L192,450L192,456L174,456L174,426L168,426L168,420L174,420L174,348L204,348L204,354L210,354L210,348L264,348L264,366L282,366L282,348L312,348L312,354L318,354L318,348L336,348L336,378L342,378L342,384L336,384L336,438L354,438L354,456L336,456L336,486L342,486L342,492L336,492L336,564L306,564L306,558L300,558L300,564L282,564L282,534L276,534L276,528L282,528Z"/>
</svg>
